<svg xmlns="http://www.w3.org/2000/svg" xmlns:xlink="http://www.w3.org/1999/xlink" width="40" height="40" viewBox="0 0 40 40">
  <defs>
    <linearGradient id="linear-gradient" x1="0.875" y1="0.083" x2="0.115" y2="0.908" gradientUnits="objectBoundingBox">
      <stop offset="0" stop-color="#01c4ec"/>
      <stop offset="1" stop-color="#e65eff"/>
    </linearGradient>
    <filter id="logoBG" x="2" y="2" width="36" height="36" filterUnits="userSpaceOnUse">
      <feOffset dy="-2" input="SourceAlpha"/>
      <feGaussianBlur stdDeviation="2" result="blur"/>
      <feFlood flood-color="#fff" flood-opacity="0.478" result="color"/>
      <feComposite operator="out" in="SourceGraphic" in2="blur"/>
      <feComposite operator="in" in="color"/>
      <feComposite operator="in" in2="SourceGraphic"/>
    </filter>
    <filter id="logoBG-2" x="18" y="8" width="18" height="21" filterUnits="userSpaceOnUse">
      <feOffset dy="2" input="SourceAlpha"/>
      <feGaussianBlur stdDeviation="2" result="blur-2"/>
      <feFlood flood-color="#27313c" flood-opacity="0.078"/>
      <feComposite operator="in" in2="blur-2"/>
      <feComposite in="SourceGraphic"/>
    </filter>
    <filter id="logoBG-3" x="4" y="8" width="18" height="21" filterUnits="userSpaceOnUse">
      <feOffset dy="2" input="SourceAlpha"/>
      <feGaussianBlur stdDeviation="2" result="blur-3"/>
      <feFlood flood-color="#27313c" flood-opacity="0.078"/>
      <feComposite operator="in" in2="blur-3"/>
      <feComposite in="SourceGraphic"/>
    </filter>
  </defs>
  <g id="Group_49948" data-name="Group 49948" transform="translate(-1019 -388)">
    <path id="logoBG-4" data-name="logoBG" d="M18.079,0l-.545.006-.819.017-.561.019-.6.026-.677.038L14.23.156l-.763.073L13.11.271l-.8.11-.859.15L11.2.579l-.818.186L9.88.9l-1.351.443-.068.026-.031.012-.081.031-1.256.566-.556.3-.663.413-.92.679-.186.155-.156.135-.835.824-.7.845-.166.228-.228.321-.527.866-.28.537-.354.777-.26.668-.176.515-.08.248-.246.9-.15.657L.577,11.2l-.047.235-.21,1.275-.058.448L.2,13.728l-.066.743-.044.64-.037.721-.02.495-.02.743L0,17.844V22.17l.013.774.02.742.02.5.037.722.044.639.066.742.063.572.058.448.21,1.276.047.234.033.155.151.653.246.9.08.248.176.514.26.668.354.777.28.536.527.866.225.324.166.228.7.846.831.819.156.135.189.158.915.677.666.412.556.3,1.256.566.081.032.031.011.067.026,1.351.443.5.134.818.186.246.048.859.15.8.111.357.041.763.074.643.048.677.04.6.026.561.017.819.017H22.47l.819-.017.561-.017.6-.026.676-.04.643-.048.764-.074.357-.041.8-.111.859-.15.246-.048.817-.186.5-.134,1.351-.443.069-.026.031-.011.08-.032,1.257-.566.556-.3.664-.412.915-.677.189-.158.156-.135.831-.819.7-.846.167-.228.224-.324.528-.866.279-.536.354-.777.26-.668.176-.514.08-.248.246-.9.152-.653.032-.155.047-.234.21-1.276.058-.448.063-.572.067-.742.043-.639.038-.722.018-.5.021-.742L40,22.17V17.851l-.012-.775-.021-.743-.018-.5-.038-.721-.043-.64-.067-.742-.063-.572-.058-.448-.21-1.274-.047-.235-.027-.16-.148-.652L39,9.5l-.08-.248-.176-.512-.261-.668-.353-.777-.279-.537-.528-.866L37.1,5.562l-.167-.228-.7-.845L35.4,3.669l-.156-.135-.189-.158L34.142,2.7l-.664-.413-.556-.3L31.66,1.411l-.08-.031-.031-.012-.069-.026L30.13.9l-.5-.134L28.809.579,28.563.531,27.7.381l-.8-.11L26.543.229,25.78.156,25.136.106,24.46.068l-.6-.026L23.294.023,22.475.006,21.932,0Z" transform="translate(1019 388)" fill="url(#linear-gradient)"/>
    <g data-type="innerShadowGroup">
      <path id="logoBG-5" data-name="logoBG" d="M16.272,0l-.491.005-.737.016-.5.017L14,.061,13.386.1,12.807.14l-.686.066L11.8.244l-.724.1L10.3.478l-.221.043L9.345.688l-.453.12-1.216.4-.061.023-.027.011-.073.028-1.13.509-.5.273-.6.372-.828.612-.167.139-.14.122L3.4,4.038,2.768,4.8,2.619,5l-.205.288-.474.78-.252.483-.318.7-.234.6-.158.463L.9,8.542.684,9.35l-.135.591-.03.138-.042.212L.288,11.438l-.052.4-.056.514-.06.668-.04.576-.033.649-.018.445-.018.668L0,16.06v3.893l.012.7.018.668.018.445.033.649.04.575.06.668.056.515.052.4.189,1.148.042.211.03.139.136.588.221.807.072.223.158.462.234.6.318.7.252.482.474.78.2.292.149.2.632.761.748.737.14.122.17.143.823.609.6.371.5.273,1.131.509.073.029.028.01.061.023,1.216.4.453.12.736.167.221.043.774.135.724.1.321.037.686.067.579.043.609.036.544.023.5.015.737.016h4.447l.737-.016.505-.015.544-.023.609-.036.579-.043.688-.067.321-.037.723-.1.774-.135.221-.043.735-.167.454-.12,1.215-.4.062-.023.027-.01.072-.029,1.132-.509.5-.273.6-.371.823-.609.17-.143.14-.122.748-.737.632-.761.15-.2.2-.292.475-.78.251-.482.318-.7.234-.6.158-.462.072-.223.221-.807.137-.588.029-.139.042-.211.189-1.148.052-.4.057-.515.061-.668.039-.575.034-.649.017-.445.019-.668.011-.7V16.066l-.011-.7L35.97,14.7l-.017-.446-.034-.649-.039-.576-.061-.668-.057-.515-.052-.4L35.523,10.3l-.042-.212-.024-.144-.134-.587L35.1,8.546l-.072-.223-.158-.461-.234-.6-.318-.7-.251-.484-.475-.78-.2-.293L33.242,4.8,32.61,4.04,31.861,3.3l-.14-.121-.171-.143-.823-.608-.6-.372-.5-.273L28.494,1.27l-.072-.028-.028-.011-.062-.023-1.216-.4-.454-.12L25.928.521,25.707.478,24.934.343l-.723-.1L23.889.206,23.2.14,22.623.1,22.014.061,21.47.038,20.965.021,20.228.005,19.738,0Z" transform="translate(1021 390)" fill="#1b1e24"/>
      <g transform="matrix(1, 0, 0, 1, 1019, 388)" filter="url(#logoBG)">
        <path id="logoBG-6" data-name="logoBG" d="M16.272,0l-.491.005-.737.016-.5.017L14,.061,13.386.1,12.807.14l-.686.066L11.8.244l-.724.1L10.3.478l-.221.043L9.345.688l-.453.12-1.216.4-.061.023-.027.011-.073.028-1.13.509-.5.273-.6.372-.828.612-.167.139-.14.122L3.4,4.038,2.768,4.8,2.619,5l-.205.288-.474.78-.252.483-.318.7-.234.6-.158.463L.9,8.542.684,9.35l-.135.591-.03.138-.042.212L.288,11.438l-.052.4-.056.514-.06.668-.04.576-.033.649-.018.445-.018.668L0,16.06v3.893l.012.7.018.668.018.445.033.649.04.575.06.668.056.515.052.4.189,1.148.042.211.03.139.136.588.221.807.072.223.158.462.234.6.318.7.252.482.474.78.2.292.149.2.632.761.748.737.14.122.17.143.823.609.6.371.5.273,1.131.509.073.029.028.01.061.023,1.216.4.453.12.736.167.221.043.774.135.724.1.321.037.686.067.579.043.609.036.544.023.5.015.737.016h4.447l.737-.016.505-.015.544-.023.609-.036.579-.043.688-.067.321-.037.723-.1.774-.135.221-.043.735-.167.454-.12,1.215-.4.062-.023.027-.01.072-.029,1.132-.509.5-.273.6-.371.823-.609.17-.143.14-.122.748-.737.632-.761.15-.2.2-.292.475-.78.251-.482.318-.7.234-.6.158-.462.072-.223.221-.807.137-.588.029-.139.042-.211.189-1.148.052-.4.057-.515.061-.668.039-.575.034-.649.017-.445.019-.668.011-.7V16.066l-.011-.7L35.97,14.7l-.017-.446-.034-.649-.039-.576-.061-.668-.057-.515-.052-.4L35.523,10.3l-.042-.212-.024-.144-.134-.587L35.1,8.546l-.072-.223-.158-.461-.234-.6-.318-.7-.251-.484-.475-.78-.2-.293L33.242,4.8,32.61,4.04,31.861,3.3l-.14-.121-.171-.143-.823-.608-.6-.372-.5-.273L28.494,1.27l-.072-.028-.028-.011-.062-.023-1.216-.4-.454-.12L25.928.521,25.707.478,24.934.343l-.723-.1L23.889.206,23.2.14,22.623.1,22.014.061,21.47.038,20.965.021,20.228.005,19.738,0Z" transform="translate(2 2)" fill="#fff"/>
      </g>
    </g>
    <g transform="matrix(1, 0, 0, 1, 1019, 388)" filter="url(#logoBG-2)">
      <g id="logoBG-7" data-name="logoBG" transform="translate(24 12)" fill="none">
        <path d="M2.712,0H2.63l-.123,0-.084,0L2.333.015l-.1.009-.1.011L2.02.052,1.967.061,1.846.086,1.717.119,1.68.13,1.557.172,1.482.2l-.2.1-.01.006,0,0L1.252.317,1.064.445.981.513l-.1.093L.743.759.715.794.692.824l-.125.185L.461,1.2l-.025.051L.4,1.323l-.079.195-.042.121-.053.175-.039.15L.163,2.08l-.012.056-.037.2-.022.148,0,.035L.08,2.573l-.031.287-.009.1L.03,3.089l-.01.167L.013,3.4l-.005.162,0,.111,0,.167,0,.174v.973l0,.174,0,.167,0,.111L.013,5.6l.007.144.01.167.009.129.009.1L.08,6.43l.007.053,0,.035.023.147.037.2.012.056.026.116.039.15.053.175.042.121L.4,7.679l.034.073L.461,7.8l.105.19.125.184.023.03.028.036L.88,8.4l.1.093.083.068.188.127.012.007,0,0,.01.006.2.1.076.03.123.042.037.011.129.034.121.025.054.009.114.017.1.011.1.009.091.006.084,0,.123,0h.741l.123,0,.084,0,.091-.006.1-.009.1-.011.115-.017.054-.009.12-.025.129-.034.037-.011.123-.042.076-.03.2-.1.01-.006,0,0,.012-.007.189-.127.083-.068.1-.093.137-.152.028-.036.023-.03.125-.184.105-.19.025-.051L5.6,7.679l.079-.195.042-.121.053-.175.039-.15.026-.116.012-.056.037-.2.023-.147,0-.035L5.92,6.43l.031-.287.009-.1.009-.129.01-.167L5.987,5.6l.006-.162,0-.111,0-.167,0-.174V4.016l0-.174,0-.167,0-.111L5.987,3.4,5.98,3.257,5.97,3.09l-.009-.129-.009-.1L5.92,2.574l-.007-.053,0-.036-.022-.147-.037-.2-.012-.056-.026-.115-.039-.15L5.72,1.64,5.678,1.52,5.6,1.325l-.033-.073L5.54,1.2l-.105-.19L5.31.826,5.287.8,5.258.76,5.121.608l-.1-.093L4.938.446,4.749.317,4.737.31l0,0L4.722.3l-.2-.1L4.444.172,4.321.13,4.285.119,4.156.086,4.035.061,3.982.052,3.867.035,3.77.024l-.1-.009L3.578.009l-.084,0L3.371,0H2.712Z" stroke="none"/>
        <path d="M 2.720134496688843 1 L 2.480231285095215 1.007867813110352 L 2.330294847488403 1.019098281860352 L 2.154334783554077 1.043298721313477 L 2.073177576065063 1.059989929199219 L 1.98249626159668 1.083752632141113 L 1.888427734375 1.116645812988281 L 1.768170833587646 1.175830364227295 L 1.661630630493164 1.247780799865723 L 1.639270305633545 1.266059875488281 L 1.595058917999268 1.307400226593018 L 1.503151416778564 1.409605503082275 L 1.420176982879639 1.53249979019165 L 1.33790922164917 1.683822631835938 L 1.318149089813232 1.725467205047607 L 1.259472846984863 1.870187282562256 L 1.232369899749756 1.948171615600586 L 1.191014289855957 2.084525585174561 L 1.160923480987549 2.200394153594971 L 1.1317458152771 2.330586433410645 L 1.100429534912109 2.502269268035889 L 1.072367668151855 2.693028926849365 L 1.036210060119629 3.040233612060547 L 1.018680095672607 3.308710098266602 L 1.004719257354736 3.696500778198242 L 1 4.106130123138428 L 1.001904010772705 5.147647857666016 L 1.012638568878174 5.563039779663086 L 1.027817726135254 5.847446441650391 L 1.04340934753418 6.046091079711914 L 1.080738067626953 6.371130466461182 L 1.100430965423584 6.498892784118652 L 1.13928747177124 6.70588493347168 L 1.161081314086914 6.801408767700195 L 1.191183567047119 6.917397499084473 L 1.232432842254639 7.053328514099121 L 1.259600162506104 7.131310939788818 L 1.348863124847412 7.341958999633789 L 1.419608592987061 7.469697952270508 L 1.506101131439209 7.596688270568848 L 1.593178272247314 7.69333553314209 L 1.660882949829102 7.753581047058105 L 1.767780303955078 7.825762748718262 L 1.903278827667236 7.89093017578125 L 1.983819484710693 7.918277263641357 L 2.073332071304321 7.941676139831543 L 2.176336288452148 7.962165832519531 L 2.329843997955322 7.982335567474365 L 2.477020978927612 7.993689060211182 L 2.64519214630127 8 L 3.354767799377441 8 L 3.59223461151123 7.989203453063965 L 3.738068819046021 7.974715232849121 L 3.848157405853271 7.958006858825684 L 3.92644214630127 7.94173526763916 L 4.017988204956055 7.917745590209961 L 4.112815856933594 7.884489059448242 L 4.23253345489502 7.825599193572998 L 4.339498043060303 7.753433227539062 L 4.362555503845215 7.734584331512451 L 4.406421661376953 7.693743705749512 L 4.498008728027344 7.591475009918213 L 4.580391407012939 7.469697952270508 L 4.660487651824951 7.322970390319824 L 4.679564476013184 7.281508445739746 L 4.740502834320068 7.131494045257568 L 4.767307281494141 7.054184436798096 L 4.80878734588623 6.917494773864746 L 4.838951587677002 6.801295280456543 L 4.867969036102295 6.672079563140869 L 4.899648189544678 6.498458862304688 L 4.927648544311523 6.309830665588379 L 4.963726043701172 5.962895393371582 L 4.981454372406006 5.694402694702148 L 4.995241165161133 5.308467864990234 L 5 4.98326587677002 L 4.998263359069824 3.857804775238037 L 4.992702484130859 3.593831539154053 L 4.981467247009277 3.309956550598145 L 4.956598281860352 2.958159923553467 L 4.917850971221924 2.616536140441895 L 4.900664806365967 2.503304004669189 L 4.861854553222656 2.296836853027344 L 4.840394020080566 2.202876567840576 L 4.81010103225708 2.086349010467529 L 4.768465995788574 1.949018001556396 L 4.741661548614502 1.871576309204102 L 4.653208255767822 1.662509441375732 L 4.581731796264648 1.533435344696045 L 4.495537757873535 1.406837940216064 L 4.407622814178467 1.309424877166748 L 4.338876724243164 1.248067378997803 L 4.2317795753479 1.175087451934814 L 4.097759246826172 1.110607147216797 L 4.017017364501953 1.083168506622314 L 3.928259134292603 1.05997371673584 L 3.8232581615448 1.039037704467773 L 3.671014070510864 1.01908540725708 L 3.453020811080933 1.004462718963623 L 3.281464815139771 1 L 2.720134496688843 1 M 2.711920022964478 0 L 3.371289968490601 0.001359939575195312 L 3.578370094299316 0.009469985961914062 L 3.770450115203857 0.02392005920410156 L 3.866960048675537 0.03505039215087891 L 4.035120010375977 0.06099033355712891 L 4.155590057373047 0.0858001708984375 L 4.321340084075928 0.1303195953369141 L 4.443830013275146 0.1720695495605469 L 4.519499778747559 0.2021398544311523 L 4.749000072479248 0.3174295425415039 L 4.938159942626953 0.4463300704956055 L 5.021610260009766 0.5145998001098633 L 5.121280193328857 0.6076202392578125 L 5.258450031280518 0.7596101760864258 L 5.310239791870117 0.8256301879882812 L 5.434929847717285 1.009950160980225 L 5.540249824523926 1.200139999389648 L 5.598830223083496 1.324600219726562 L 5.678009986877441 1.519519805908203 L 5.719860076904297 1.640429973602295 L 5.772870063781738 1.815279960632324 L 5.811950206756592 1.965610027313232 L 5.850279808044434 2.13661003112793 L 5.887110233306885 2.338520050048828 L 5.920420169830322 2.574059963226318 L 5.960569858551025 2.961649894714355 L 5.980110168457031 3.257349967956543 L 5.995029926300049 3.675079822540283 L 6 4.01648998260498 L 5.998149871826172 5.16232967376709 L 5.992259979248047 5.44074010848999 L 5.980110168457031 5.746799945831299 L 5.960569858551025 6.042490005493164 L 5.951920032501221 6.143330097198486 L 5.90861988067627 6.517839908599854 L 5.885799884796143 6.664850234985352 L 5.837009906768799 6.922420024871826 L 5.810649871826172 7.038000106811523 L 5.771609783172607 7.188389778137207 L 5.718550205230713 7.363240242004395 L 5.676750183105469 7.483799934387207 L 5.597569942474365 7.678719997406006 L 5.538990020751953 7.80288028717041 L 5.433629989624023 7.993120193481445 L 5.285530090332031 8.207819938659668 L 5.257180213928223 8.243470191955566 L 5.119930267333984 8.395759582519531 L 5.020339965820312 8.488479614257812 L 4.93690013885498 8.556690216064453 L 4.721369743347168 8.699569702148438 L 4.518790245056152 8.799220085144043 L 4.443120002746582 8.829299926757812 L 4.283760070800781 8.881930351257324 L 4.154839992523193 8.915630340576172 L 3.980799913406372 8.949850082397461 L 3.866209983825684 8.966609954833984 L 3.66825008392334 8.986379623413086 L 3.493419885635376 8.996089935302734 L 3.370539903640747 9 L 2.629420042037964 9 L 2.422379970550537 8.992239952087402 L 2.230259895324707 8.977439880371094 L 2.133790016174316 8.966609954833984 L 1.965829849243164 8.940670013427734 L 1.845160007476807 8.915630340576172 L 1.679409980773926 8.871100425720215 L 1.556719779968262 8.829299926757812 L 1.481210231781006 8.799220085144043 L 1.251749992370605 8.683939933776855 L 1.063300132751465 8.556690216064453 L 0.9798598289489746 8.488479614257812 L 0.8800301551818848 8.395759582519531 L 0.7428197860717773 8.243470191955566 L 0.6910700798034668 8.177450180053711 L 0.5663700103759766 7.993120193481445 L 0.4610099792480469 7.80288028717041 L 0.4024300575256348 7.678719997406006 L 0.3234500885009766 7.483799934387207 L 0.2814497947692871 7.363240242004395 L 0.2283902168273926 7.188389778137207 L 0.1893601417541504 7.038000106811523 L 0.1510300636291504 6.866700172424316 L 0.1142001152038574 6.664850234985352 L 0.07957983016967773 6.430379867553711 L 0.03939008712768555 6.042490005493164 L 0.020050048828125 5.746799945831299 L 0.004970073699951172 5.329360008239746 L 0 4.896949768066406 L 0.002009868621826172 3.840750217437744 L 0.007929801940917969 3.562280178070068 L 0.020050048828125 3.255990028381348 L 0.03939008712768555 2.96028995513916 L 0.0480799674987793 2.859449863433838 L 0.09153985977172852 2.485179901123047 L 0.1139998435974121 2.337399959564209 L 0.1628298759460449 2.079770088195801 L 0.1891598701477051 1.963950157165527 L 0.2281999588012695 1.813620090484619 L 0.28125 1.638710021972656 L 0.3232498168945312 1.517859935760498 L 0.4022798538208008 1.322939872741699 L 0.4613699913024902 1.199600219726562 L 0.5667600631713867 1.009419918060303 L 0.7153401374816895 0.7936000823974609 L 0.7431697845458984 0.7587795257568359 L 0.8811302185058594 0.6058998107910156 L 0.9806098937988281 0.5128803253173828 L 1.064050197601318 0.4446697235107422 L 1.279339790344238 0.3018598556518555 L 1.481959819793701 0.2021398544311523 L 1.557469844818115 0.1720695495605469 L 1.716989994049072 0.1194896697998047 L 1.84591007232666 0.0858001708984375 L 2.020139932632446 0.05150985717773438 L 2.13454008102417 0.03505039215087891 L 2.231009960174561 0.02392005920410156 L 2.423130035400391 0.009469985961914062 L 2.630170106887817 0.001359939575195312 L 2.711920022964478 0 Z" stroke="none" fill="#fff"/>
      </g>
    </g>
    <g transform="matrix(1, 0, 0, 1, 1019, 388)" filter="url(#logoBG-3)">
      <g id="logoBG-8" data-name="logoBG" transform="translate(10 12)" fill="none">
        <path d="M2.712,0H2.63l-.123,0-.084,0L2.333.015l-.1.009-.1.011L2.02.052,1.967.061,1.846.086,1.717.119,1.68.13,1.557.172,1.482.2l-.2.1-.01.006,0,0L1.252.317,1.064.445.981.513l-.1.093L.743.759.715.794.692.824l-.125.185L.461,1.2l-.025.051L.4,1.323l-.079.195-.042.121-.053.175-.039.15L.163,2.08l-.012.056-.037.2-.022.148,0,.035L.08,2.573l-.031.287-.009.1L.03,3.089l-.01.167L.013,3.4l-.005.162,0,.111,0,.167,0,.174v.973l0,.174,0,.167,0,.111L.013,5.6l.007.144.01.167.009.129.009.1L.08,6.43l.007.053,0,.035.023.147.037.2.012.056.026.116.039.15.053.175.042.121L.4,7.679l.034.073L.461,7.8l.105.19.125.184.023.03.028.036L.88,8.4l.1.093.083.068.188.127.012.007,0,0,.01.006.2.1.076.03.123.042.037.011.129.034.121.025.054.009.114.017.1.011.1.009.091.006.084,0,.123,0h.741l.123,0,.084,0,.091-.006.1-.009.1-.011.115-.017.054-.009.12-.025.129-.034.037-.011.123-.042.076-.03.2-.1.01-.006,0,0,.012-.007.189-.127.083-.068.1-.093.137-.152.028-.036.023-.03.125-.184.105-.19.025-.051L5.6,7.679l.079-.195.042-.121.053-.175.039-.15.026-.116.012-.056.037-.2.023-.147,0-.035L5.92,6.43l.031-.287.009-.1.009-.129.01-.167L5.987,5.6l.006-.162,0-.111,0-.167,0-.174V4.016l0-.174,0-.167,0-.111L5.987,3.4,5.98,3.257,5.97,3.09l-.009-.129-.009-.1L5.92,2.574l-.007-.053,0-.036-.022-.147-.037-.2-.012-.056-.026-.115-.039-.15L5.72,1.64,5.678,1.52,5.6,1.325l-.033-.073L5.54,1.2l-.105-.19L5.31.826,5.287.8,5.258.76,5.121.608l-.1-.093L4.938.446,4.749.317,4.737.31l0,0L4.722.3l-.2-.1L4.444.172,4.321.13,4.285.119,4.156.086,4.035.061,3.982.052,3.867.035,3.77.024l-.1-.009L3.578.009l-.084,0L3.371,0H2.712Z" stroke="none"/>
        <path d="M 2.720134496688843 1 L 2.480231285095215 1.007867813110352 L 2.330294847488403 1.019098281860352 L 2.154334783554077 1.043298721313477 L 2.073177576065063 1.059989929199219 L 1.98249626159668 1.083752632141113 L 1.888427734375 1.116645812988281 L 1.768170833587646 1.175830364227295 L 1.661630630493164 1.247780799865723 L 1.639270305633545 1.266059875488281 L 1.595058917999268 1.307400226593018 L 1.503151416778564 1.409605503082275 L 1.420176982879639 1.53249979019165 L 1.33790922164917 1.683822631835938 L 1.318149089813232 1.725467205047607 L 1.259472846984863 1.870187282562256 L 1.232369899749756 1.948171615600586 L 1.191014289855957 2.084525585174561 L 1.160923480987549 2.200394153594971 L 1.1317458152771 2.330586433410645 L 1.100429534912109 2.502269268035889 L 1.072367668151855 2.693028926849365 L 1.036210060119629 3.040233612060547 L 1.018680095672607 3.308710098266602 L 1.004719257354736 3.696500778198242 L 1 4.106130123138428 L 1.001904010772705 5.147647857666016 L 1.012638568878174 5.563039779663086 L 1.027817726135254 5.847446441650391 L 1.04340934753418 6.046091079711914 L 1.080738067626953 6.371130466461182 L 1.100430965423584 6.498892784118652 L 1.13928747177124 6.70588493347168 L 1.161081314086914 6.801408767700195 L 1.191183567047119 6.917397499084473 L 1.232432842254639 7.053328514099121 L 1.259600162506104 7.131310939788818 L 1.348863124847412 7.341958999633789 L 1.419608592987061 7.469697952270508 L 1.506101131439209 7.596688270568848 L 1.593178272247314 7.69333553314209 L 1.660882949829102 7.753581047058105 L 1.767780303955078 7.825762748718262 L 1.903278827667236 7.89093017578125 L 1.983819484710693 7.918277263641357 L 2.073332071304321 7.941676139831543 L 2.176336288452148 7.962165832519531 L 2.329843997955322 7.982335567474365 L 2.477020978927612 7.993689060211182 L 2.64519214630127 8 L 3.354767799377441 8 L 3.59223461151123 7.989203453063965 L 3.738068819046021 7.974715232849121 L 3.848157405853271 7.958006858825684 L 3.92644214630127 7.94173526763916 L 4.017988204956055 7.917745590209961 L 4.112815856933594 7.884489059448242 L 4.23253345489502 7.825599193572998 L 4.339498043060303 7.753433227539062 L 4.362555503845215 7.734584331512451 L 4.406421661376953 7.693743705749512 L 4.498008728027344 7.591475009918213 L 4.580391407012939 7.469697952270508 L 4.660487651824951 7.322970390319824 L 4.679564476013184 7.281508445739746 L 4.740502834320068 7.131494045257568 L 4.767307281494141 7.054184436798096 L 4.80878734588623 6.917494773864746 L 4.838951587677002 6.801295280456543 L 4.867969036102295 6.672079563140869 L 4.899648189544678 6.498458862304688 L 4.927648544311523 6.309830665588379 L 4.963726043701172 5.962895393371582 L 4.981454372406006 5.694402694702148 L 4.995241165161133 5.308467864990234 L 5 4.98326587677002 L 4.998263359069824 3.857804775238037 L 4.992702484130859 3.593831539154053 L 4.981467247009277 3.309956550598145 L 4.956598281860352 2.958159923553467 L 4.917850971221924 2.616536140441895 L 4.900664806365967 2.503304004669189 L 4.861854553222656 2.296836853027344 L 4.840394020080566 2.202876567840576 L 4.81010103225708 2.086349010467529 L 4.768465995788574 1.949018001556396 L 4.741661548614502 1.871576309204102 L 4.653208255767822 1.662509441375732 L 4.581731796264648 1.533435344696045 L 4.495537757873535 1.406837940216064 L 4.407622814178467 1.309424877166748 L 4.338876724243164 1.248067378997803 L 4.2317795753479 1.175087451934814 L 4.097759246826172 1.110607147216797 L 4.017017364501953 1.083168506622314 L 3.928259134292603 1.05997371673584 L 3.8232581615448 1.039037704467773 L 3.671014070510864 1.01908540725708 L 3.453020811080933 1.004462718963623 L 3.281464815139771 1 L 2.720134496688843 1 M 2.711920022964478 0 L 3.371289968490601 0.001359939575195312 L 3.578370094299316 0.009469985961914062 L 3.770450115203857 0.02392005920410156 L 3.866960048675537 0.03505039215087891 L 4.035120010375977 0.06099033355712891 L 4.155590057373047 0.0858001708984375 L 4.321340084075928 0.1303195953369141 L 4.443830013275146 0.1720695495605469 L 4.519499778747559 0.2021398544311523 L 4.749000072479248 0.3174295425415039 L 4.938159942626953 0.4463300704956055 L 5.021610260009766 0.5145998001098633 L 5.121280193328857 0.6076202392578125 L 5.258450031280518 0.7596101760864258 L 5.310239791870117 0.8256301879882812 L 5.434929847717285 1.009950160980225 L 5.540249824523926 1.200139999389648 L 5.598830223083496 1.324600219726562 L 5.678009986877441 1.519519805908203 L 5.719860076904297 1.640429973602295 L 5.772870063781738 1.815279960632324 L 5.811950206756592 1.965610027313232 L 5.850279808044434 2.13661003112793 L 5.887110233306885 2.338520050048828 L 5.920420169830322 2.574059963226318 L 5.960569858551025 2.961649894714355 L 5.980110168457031 3.257349967956543 L 5.995029926300049 3.675079822540283 L 6 4.01648998260498 L 5.998149871826172 5.16232967376709 L 5.992259979248047 5.44074010848999 L 5.980110168457031 5.746799945831299 L 5.960569858551025 6.042490005493164 L 5.951920032501221 6.143330097198486 L 5.90861988067627 6.517839908599854 L 5.885799884796143 6.664850234985352 L 5.837009906768799 6.922420024871826 L 5.810649871826172 7.038000106811523 L 5.771609783172607 7.188389778137207 L 5.718550205230713 7.363240242004395 L 5.676750183105469 7.483799934387207 L 5.597569942474365 7.678719997406006 L 5.538990020751953 7.80288028717041 L 5.433629989624023 7.993120193481445 L 5.285530090332031 8.207819938659668 L 5.257180213928223 8.243470191955566 L 5.119930267333984 8.395759582519531 L 5.020339965820312 8.488479614257812 L 4.93690013885498 8.556690216064453 L 4.721369743347168 8.699569702148438 L 4.518790245056152 8.799220085144043 L 4.443120002746582 8.829299926757812 L 4.283760070800781 8.881930351257324 L 4.154839992523193 8.915630340576172 L 3.980799913406372 8.949850082397461 L 3.866209983825684 8.966609954833984 L 3.66825008392334 8.986379623413086 L 3.493419885635376 8.996089935302734 L 3.370539903640747 9 L 2.629420042037964 9 L 2.422379970550537 8.992239952087402 L 2.230259895324707 8.977439880371094 L 2.133790016174316 8.966609954833984 L 1.965829849243164 8.940670013427734 L 1.845160007476807 8.915630340576172 L 1.679409980773926 8.871100425720215 L 1.556719779968262 8.829299926757812 L 1.481210231781006 8.799220085144043 L 1.251749992370605 8.683939933776855 L 1.063300132751465 8.556690216064453 L 0.9798598289489746 8.488479614257812 L 0.8800301551818848 8.395759582519531 L 0.7428197860717773 8.243470191955566 L 0.6910700798034668 8.177450180053711 L 0.5663700103759766 7.993120193481445 L 0.4610099792480469 7.80288028717041 L 0.4024300575256348 7.678719997406006 L 0.3234500885009766 7.483799934387207 L 0.2814497947692871 7.363240242004395 L 0.2283902168273926 7.188389778137207 L 0.1893601417541504 7.038000106811523 L 0.1510300636291504 6.866700172424316 L 0.1142001152038574 6.664850234985352 L 0.07957983016967773 6.430379867553711 L 0.03939008712768555 6.042490005493164 L 0.020050048828125 5.746799945831299 L 0.004970073699951172 5.329360008239746 L 0 4.896949768066406 L 0.002009868621826172 3.840750217437744 L 0.007929801940917969 3.562280178070068 L 0.020050048828125 3.255990028381348 L 0.03939008712768555 2.96028995513916 L 0.0480799674987793 2.859449863433838 L 0.09153985977172852 2.485179901123047 L 0.1139998435974121 2.337399959564209 L 0.1628298759460449 2.079770088195801 L 0.1891598701477051 1.963950157165527 L 0.2281999588012695 1.813620090484619 L 0.28125 1.638710021972656 L 0.3232498168945312 1.517859935760498 L 0.4022798538208008 1.322939872741699 L 0.4613699913024902 1.199600219726562 L 0.5667600631713867 1.009419918060303 L 0.7153401374816895 0.7936000823974609 L 0.7431697845458984 0.7587795257568359 L 0.8811302185058594 0.6058998107910156 L 0.9806098937988281 0.5128803253173828 L 1.064050197601318 0.4446697235107422 L 1.279339790344238 0.3018598556518555 L 1.481959819793701 0.2021398544311523 L 1.557469844818115 0.1720695495605469 L 1.716989994049072 0.1194896697998047 L 1.84591007232666 0.0858001708984375 L 2.020139932632446 0.05150985717773438 L 2.13454008102417 0.03505039215087891 L 2.231009960174561 0.02392005920410156 L 2.423130035400391 0.009469985961914062 L 2.630170106887817 0.001359939575195312 L 2.711920022964478 0 Z" stroke="none" fill="#fff"/>
      </g>
    </g>
  </g>
</svg>
